<mxfile host="65bd71144e">
    <diagram id="GrtWmv7Xc2J1RJwbP1BZ" name="Page-1">
        <mxGraphModel dx="1842" dy="1383" grid="1" gridSize="10" guides="1" tooltips="1" connect="1" arrows="1" fold="1" page="1" pageScale="1" pageWidth="850" pageHeight="1100" math="0" shadow="0">
            <root>
                <mxCell id="0"/>
                <mxCell id="1" parent="0"/>
                <mxCell id="24" style="edgeStyle=none;html=1;fontColor=#FFFFFF;" edge="1" parent="1" source="2" target="4">
                    <mxGeometry relative="1" as="geometry"/>
                </mxCell>
                <mxCell id="2" value="INICIO" style="ellipse;whiteSpace=wrap;html=1;fillColor=#76608a;fontColor=#ffffff;strokeColor=#432D57;" vertex="1" parent="1">
                    <mxGeometry x="350" y="80" width="120" height="40" as="geometry"/>
                </mxCell>
                <mxCell id="3" value="&lt;h1&gt;&lt;span style=&quot;font-family: Roboto, Arial, sans-serif; font-size: 14px; letter-spacing: 0.2px;&quot;&gt;&lt;font style=&quot;&quot; color=&quot;#ffffff&quot;&gt;Fluxograma com decisão:&lt;/font&gt;&lt;/span&gt;&lt;br&gt;&lt;/h1&gt;&lt;p&gt;&lt;font color=&quot;#ffffff&quot;&gt;&lt;span style=&quot;font-family: Roboto, Arial, sans-serif; font-size: 14px; letter-spacing: 0.2px;&quot;&gt;Elabore um fluxograma para verificar se um usuário fez login em um&amp;nbsp;&lt;/span&gt;&lt;span style=&quot;font-family: Roboto, Arial, sans-serif; font-size: 14px; letter-spacing: 0.2px;&quot;&gt;site, caso as informações sejam incorretas, mostre uma mensagem de erro e&amp;nbsp;&lt;/span&gt;&lt;span style=&quot;font-family: Roboto, Arial, sans-serif; font-size: 14px; letter-spacing: 0.2px;&quot;&gt;finalize a aplicação e caso dê certo faça o processo de entrar no site.&lt;/span&gt;&lt;/font&gt;&lt;br&gt;&lt;/p&gt;" style="text;html=1;strokeColor=none;fillColor=none;spacing=5;spacingTop=-20;whiteSpace=wrap;overflow=hidden;rounded=0;" vertex="1" parent="1">
                    <mxGeometry x="40" y="30" width="190" height="220" as="geometry"/>
                </mxCell>
                <mxCell id="23" style="edgeStyle=none;html=1;entryX=0;entryY=0;entryDx=65;entryDy=0;entryPerimeter=0;fontColor=#FFFFFF;" edge="1" parent="1" source="4" target="5">
                    <mxGeometry relative="1" as="geometry"/>
                </mxCell>
                <mxCell id="4" value="LOGIN, LOGNCONFIRMACAO" style="shape=internalStorage;whiteSpace=wrap;html=1;backgroundOutline=1;fontColor=#ffffff;fillColor=#647687;strokeColor=#314354;" vertex="1" parent="1">
                    <mxGeometry x="330" y="180" width="160" height="60" as="geometry"/>
                </mxCell>
                <mxCell id="22" style="edgeStyle=none;html=1;entryX=0.5;entryY=0;entryDx=0;entryDy=0;fontColor=#FFFFFF;" edge="1" parent="1" source="5" target="6">
                    <mxGeometry relative="1" as="geometry"/>
                </mxCell>
                <mxCell id="5" value="&quot;Faça seu LOGIN&quot;" style="shape=display;whiteSpace=wrap;html=1;fontColor=#ffffff;fillColor=#1ba1e2;strokeColor=#006EAF;" vertex="1" parent="1">
                    <mxGeometry x="345" y="320" width="130" height="65" as="geometry"/>
                </mxCell>
                <mxCell id="21" style="edgeStyle=none;html=1;entryX=0;entryY=0;entryDx=65;entryDy=0;entryPerimeter=0;fontColor=#FFFFFF;" edge="1" parent="1" source="6" target="9">
                    <mxGeometry relative="1" as="geometry"/>
                </mxCell>
                <mxCell id="6" value="LOGIN&amp;nbsp;" style="shape=manualInput;whiteSpace=wrap;html=1;fontColor=#ffffff;fillColor=#0050ef;strokeColor=#001DBC;" vertex="1" parent="1">
                    <mxGeometry x="300" y="470" width="220" height="80" as="geometry"/>
                </mxCell>
                <mxCell id="17" style="edgeStyle=none;html=1;entryX=1;entryY=0.5;entryDx=0;entryDy=0;fontColor=#FFFFFF;fillColor=#e51400;strokeColor=#B20000;" edge="1" parent="1" source="7" target="12">
                    <mxGeometry relative="1" as="geometry"/>
                </mxCell>
                <mxCell id="18" style="edgeStyle=none;html=1;entryX=0;entryY=0.5;entryDx=0;entryDy=0;fontColor=#FFFFFF;fillColor=#60a917;strokeColor=#2D7600;" edge="1" parent="1" source="7" target="11">
                    <mxGeometry relative="1" as="geometry"/>
                </mxCell>
                <mxCell id="7" value="LOGIN == LOGINCONFIRMACAO" style="rhombus;whiteSpace=wrap;html=1;fontColor=#ffffff;fillColor=#6a00ff;strokeColor=#3700CC;" vertex="1" parent="1">
                    <mxGeometry x="292.5" y="930" width="235" height="80" as="geometry"/>
                </mxCell>
                <mxCell id="20" style="edgeStyle=none;html=1;fontColor=#FFFFFF;" edge="1" parent="1" source="9" target="10">
                    <mxGeometry relative="1" as="geometry"/>
                </mxCell>
                <mxCell id="9" value="&quot;Confirme seu LOGIN: &quot;" style="shape=display;whiteSpace=wrap;html=1;fontColor=#ffffff;fillColor=#1ba1e2;strokeColor=#006EAF;" vertex="1" parent="1">
                    <mxGeometry x="345" y="640" width="130" height="65" as="geometry"/>
                </mxCell>
                <mxCell id="19" style="edgeStyle=none;html=1;entryX=0.5;entryY=0;entryDx=0;entryDy=0;fontColor=#FFFFFF;" edge="1" parent="1" source="10" target="7">
                    <mxGeometry relative="1" as="geometry"/>
                </mxCell>
                <mxCell id="10" value="LOGINCONFIRMACAO" style="shape=manualInput;whiteSpace=wrap;html=1;fontColor=#ffffff;fillColor=#0050ef;strokeColor=#001DBC;" vertex="1" parent="1">
                    <mxGeometry x="300" y="790" width="220" height="80" as="geometry"/>
                </mxCell>
                <mxCell id="16" style="edgeStyle=none;html=1;entryX=0;entryY=0;entryDx=60;entryDy=0;entryPerimeter=0;fontColor=#FFFFFF;fillColor=#60a917;strokeColor=#2D7600;" edge="1" parent="1" source="11" target="13">
                    <mxGeometry relative="1" as="geometry"/>
                </mxCell>
                <mxCell id="11" value="EXISTE" style="text;html=1;strokeColor=#2D7600;fillColor=#60a917;align=center;verticalAlign=middle;whiteSpace=wrap;rounded=0;fontColor=#ffffff;" vertex="1" parent="1">
                    <mxGeometry x="620" y="955" width="60" height="30" as="geometry"/>
                </mxCell>
                <mxCell id="15" style="edgeStyle=none;html=1;entryX=0;entryY=0;entryDx=60;entryDy=0;entryPerimeter=0;fontColor=#FFFFFF;fillColor=#e51400;strokeColor=#B20000;" edge="1" parent="1" source="12" target="14">
                    <mxGeometry relative="1" as="geometry"/>
                </mxCell>
                <mxCell id="12" value="NÃO EXISTE" style="text;html=1;strokeColor=#B20000;fillColor=#e51400;align=center;verticalAlign=middle;whiteSpace=wrap;rounded=0;fontColor=#ffffff;" vertex="1" parent="1">
                    <mxGeometry x="140" y="955" width="60" height="30" as="geometry"/>
                </mxCell>
                <mxCell id="27" style="edgeStyle=none;html=1;entryX=0.5;entryY=0;entryDx=0;entryDy=0;fontColor=#FFFFFF;" edge="1" parent="1" source="13" target="25">
                    <mxGeometry relative="1" as="geometry"/>
                </mxCell>
                <mxCell id="13" value="&quot;LOGADO com sucesso!!" style="shape=display;whiteSpace=wrap;html=1;fontColor=#ffffff;fillColor=#60a917;strokeColor=#2D7600;" vertex="1" parent="1">
                    <mxGeometry x="590" y="1140" width="120" height="60" as="geometry"/>
                </mxCell>
                <mxCell id="26" style="edgeStyle=none;html=1;entryX=0.5;entryY=0;entryDx=0;entryDy=0;fontColor=#FFFFFF;" edge="1" parent="1" source="14" target="25">
                    <mxGeometry relative="1" as="geometry"/>
                </mxCell>
                <mxCell id="14" value="&quot;Não foi possível fazer LOGIN ao site!!" style="shape=display;whiteSpace=wrap;html=1;fontColor=#ffffff;fillColor=#e51400;strokeColor=#B20000;" vertex="1" parent="1">
                    <mxGeometry x="110" y="1140" width="120" height="60" as="geometry"/>
                </mxCell>
                <mxCell id="25" value="FIM" style="ellipse;whiteSpace=wrap;html=1;fontColor=#FFFFFF;" vertex="1" parent="1">
                    <mxGeometry x="350" y="1320" width="120" height="40" as="geometry"/>
                </mxCell>
            </root>
        </mxGraphModel>
    </diagram>
</mxfile>